<mxfile host="Electron" agent="Mozilla/5.0 (X11; Linux x86_64) AppleWebKit/537.36 (KHTML, like Gecko) draw.io/28.0.4 Chrome/138.0.7204.97 Electron/37.2.1 Safari/537.36" version="28.0.4">
  <diagram id="iR62c7-4qOC_iBsmcCvD" name="PÃ¡gina-1">
    <mxGraphModel dx="1699" dy="540" grid="1" gridSize="10" guides="1" tooltips="1" connect="1" arrows="1" fold="1" page="1" pageScale="1" pageWidth="827" pageHeight="1169" math="0" shadow="0">
      <root>
        <mxCell id="0" />
        <mxCell id="1" parent="0" />
        <mxCell id="u7Th_CYeHWjo8ZA-D8sN-56" style="edgeStyle=orthogonalEdgeStyle;rounded=0;orthogonalLoop=1;jettySize=auto;html=1;exitX=1;exitY=0.25;exitDx=0;exitDy=0;entryX=0.5;entryY=1;entryDx=0;entryDy=0;fontFamily=Helvetica;fontSize=12;fontColor=default;endArrow=none;endFill=0;" edge="1" parent="1" source="u7Th_CYeHWjo8ZA-D8sN-1" target="u7Th_CYeHWjo8ZA-D8sN-17">
          <mxGeometry relative="1" as="geometry" />
        </mxCell>
        <mxCell id="u7Th_CYeHWjo8ZA-D8sN-69" value="1" style="edgeLabel;html=1;align=center;verticalAlign=middle;resizable=0;points=[];rounded=0;strokeColor=default;strokeWidth=1;fontFamily=Helvetica;fontSize=12;fontColor=default;fillColor=default;gradientColor=none;" vertex="1" connectable="0" parent="u7Th_CYeHWjo8ZA-D8sN-56">
          <mxGeometry x="0.4851" y="-2" relative="1" as="geometry">
            <mxPoint x="1" as="offset" />
          </mxGeometry>
        </mxCell>
        <mxCell id="u7Th_CYeHWjo8ZA-D8sN-57" style="edgeStyle=orthogonalEdgeStyle;rounded=0;orthogonalLoop=1;jettySize=auto;html=1;exitX=1;exitY=0.5;exitDx=0;exitDy=0;fontFamily=Helvetica;fontSize=12;fontColor=default;endArrow=none;endFill=0;" edge="1" parent="1" source="u7Th_CYeHWjo8ZA-D8sN-1">
          <mxGeometry relative="1" as="geometry">
            <mxPoint x="250" y="170" as="targetPoint" />
          </mxGeometry>
        </mxCell>
        <mxCell id="u7Th_CYeHWjo8ZA-D8sN-84" style="edgeStyle=orthogonalEdgeStyle;rounded=0;orthogonalLoop=1;jettySize=auto;html=1;exitX=0.5;exitY=1;exitDx=0;exitDy=0;entryX=0.5;entryY=0;entryDx=0;entryDy=0;fontFamily=Helvetica;fontSize=12;fontColor=default;endArrow=none;endFill=0;" edge="1" parent="1" source="u7Th_CYeHWjo8ZA-D8sN-1" target="u7Th_CYeHWjo8ZA-D8sN-21">
          <mxGeometry relative="1" as="geometry" />
        </mxCell>
        <mxCell id="u7Th_CYeHWjo8ZA-D8sN-86" value="M" style="edgeLabel;html=1;align=center;verticalAlign=middle;resizable=0;points=[];rounded=0;strokeColor=default;strokeWidth=1;fontFamily=Helvetica;fontSize=12;fontColor=default;fillColor=default;gradientColor=none;" vertex="1" connectable="0" parent="u7Th_CYeHWjo8ZA-D8sN-84">
          <mxGeometry x="0.0222" y="1" relative="1" as="geometry">
            <mxPoint as="offset" />
          </mxGeometry>
        </mxCell>
        <mxCell id="u7Th_CYeHWjo8ZA-D8sN-102" style="edgeStyle=orthogonalEdgeStyle;rounded=0;orthogonalLoop=1;jettySize=auto;html=1;exitX=0;exitY=0;exitDx=0;exitDy=0;entryX=0;entryY=1;entryDx=0;entryDy=0;fontFamily=Helvetica;fontSize=12;fontColor=default;endArrow=none;endFill=0;" edge="1" parent="1" source="u7Th_CYeHWjo8ZA-D8sN-1" target="u7Th_CYeHWjo8ZA-D8sN-12">
          <mxGeometry relative="1" as="geometry">
            <Array as="points">
              <mxPoint x="60" y="120" />
              <mxPoint x="23" y="120" />
            </Array>
          </mxGeometry>
        </mxCell>
        <mxCell id="u7Th_CYeHWjo8ZA-D8sN-103" style="edgeStyle=orthogonalEdgeStyle;rounded=0;orthogonalLoop=1;jettySize=auto;html=1;exitX=0.5;exitY=0;exitDx=0;exitDy=0;entryX=0.5;entryY=1;entryDx=0;entryDy=0;fontFamily=Helvetica;fontSize=12;fontColor=default;endArrow=none;endFill=0;" edge="1" parent="1" source="u7Th_CYeHWjo8ZA-D8sN-1" target="u7Th_CYeHWjo8ZA-D8sN-14">
          <mxGeometry relative="1" as="geometry" />
        </mxCell>
        <mxCell id="u7Th_CYeHWjo8ZA-D8sN-104" style="edgeStyle=orthogonalEdgeStyle;rounded=0;orthogonalLoop=1;jettySize=auto;html=1;exitX=0.75;exitY=0;exitDx=0;exitDy=0;entryX=0;entryY=1;entryDx=0;entryDy=0;fontFamily=Helvetica;fontSize=12;fontColor=default;endArrow=none;endFill=0;" edge="1" parent="1" source="u7Th_CYeHWjo8ZA-D8sN-1" target="u7Th_CYeHWjo8ZA-D8sN-15">
          <mxGeometry relative="1" as="geometry" />
        </mxCell>
        <mxCell id="u7Th_CYeHWjo8ZA-D8sN-105" style="edgeStyle=orthogonalEdgeStyle;rounded=0;orthogonalLoop=1;jettySize=auto;html=1;exitX=1;exitY=0;exitDx=0;exitDy=0;entryX=0;entryY=0.5;entryDx=0;entryDy=0;fontFamily=Helvetica;fontSize=12;fontColor=default;endArrow=none;endFill=0;" edge="1" parent="1" source="u7Th_CYeHWjo8ZA-D8sN-1" target="u7Th_CYeHWjo8ZA-D8sN-16">
          <mxGeometry relative="1" as="geometry">
            <Array as="points">
              <mxPoint x="165" y="120" />
              <mxPoint x="187" y="120" />
              <mxPoint x="187" y="115" />
            </Array>
          </mxGeometry>
        </mxCell>
        <mxCell id="u7Th_CYeHWjo8ZA-D8sN-1" value="AIRPORT" style="rounded=0;whiteSpace=wrap;html=1;" vertex="1" parent="1">
          <mxGeometry x="60" y="130" width="105" height="30" as="geometry" />
        </mxCell>
        <mxCell id="u7Th_CYeHWjo8ZA-D8sN-44" style="edgeStyle=orthogonalEdgeStyle;rounded=0;orthogonalLoop=1;jettySize=auto;html=1;exitX=1;exitY=0;exitDx=0;exitDy=0;entryX=0.5;entryY=1;entryDx=0;entryDy=0;fontFamily=Helvetica;fontSize=12;fontColor=default;endArrow=none;endFill=0;" edge="1" parent="1" source="u7Th_CYeHWjo8ZA-D8sN-3" target="u7Th_CYeHWjo8ZA-D8sN-10">
          <mxGeometry relative="1" as="geometry" />
        </mxCell>
        <mxCell id="u7Th_CYeHWjo8ZA-D8sN-47" value="N" style="edgeLabel;html=1;align=center;verticalAlign=middle;resizable=0;points=[];rounded=0;strokeColor=default;strokeWidth=1;fontFamily=Helvetica;fontSize=12;fontColor=default;fillColor=default;gradientColor=none;" vertex="1" connectable="0" parent="u7Th_CYeHWjo8ZA-D8sN-44">
          <mxGeometry x="0.8" y="-2" relative="1" as="geometry">
            <mxPoint as="offset" />
          </mxGeometry>
        </mxCell>
        <mxCell id="u7Th_CYeHWjo8ZA-D8sN-118" style="edgeStyle=orthogonalEdgeStyle;rounded=0;orthogonalLoop=1;jettySize=auto;html=1;exitX=1;exitY=0.5;exitDx=0;exitDy=0;entryX=0;entryY=1;entryDx=0;entryDy=0;fontFamily=Helvetica;fontSize=12;fontColor=default;endArrow=none;endFill=0;" edge="1" parent="1" source="u7Th_CYeHWjo8ZA-D8sN-3" target="u7Th_CYeHWjo8ZA-D8sN-30">
          <mxGeometry relative="1" as="geometry" />
        </mxCell>
        <mxCell id="u7Th_CYeHWjo8ZA-D8sN-119" style="edgeStyle=orthogonalEdgeStyle;rounded=0;orthogonalLoop=1;jettySize=auto;html=1;exitX=1;exitY=0.75;exitDx=0;exitDy=0;entryX=0;entryY=1;entryDx=0;entryDy=0;fontFamily=Helvetica;fontSize=12;fontColor=default;endArrow=none;endFill=0;" edge="1" parent="1" source="u7Th_CYeHWjo8ZA-D8sN-3" target="u7Th_CYeHWjo8ZA-D8sN-31">
          <mxGeometry relative="1" as="geometry" />
        </mxCell>
        <mxCell id="u7Th_CYeHWjo8ZA-D8sN-3" value="LEG_INSTANCE" style="shape=ext;margin=3;double=1;whiteSpace=wrap;html=1;align=center;" vertex="1" parent="1">
          <mxGeometry x="400" y="535" width="100" height="40" as="geometry" />
        </mxCell>
        <mxCell id="u7Th_CYeHWjo8ZA-D8sN-114" style="edgeStyle=orthogonalEdgeStyle;rounded=0;orthogonalLoop=1;jettySize=auto;html=1;exitX=0.5;exitY=0;exitDx=0;exitDy=0;entryX=1;entryY=0.5;entryDx=0;entryDy=0;fontFamily=Helvetica;fontSize=12;fontColor=default;endArrow=none;endFill=0;" edge="1" parent="1" source="u7Th_CYeHWjo8ZA-D8sN-4" target="u7Th_CYeHWjo8ZA-D8sN-34">
          <mxGeometry relative="1" as="geometry" />
        </mxCell>
        <mxCell id="u7Th_CYeHWjo8ZA-D8sN-4" value="SEAT" style="shape=ext;margin=3;double=1;whiteSpace=wrap;html=1;align=center;" vertex="1" parent="1">
          <mxGeometry x="129" y="680" width="100" height="40" as="geometry" />
        </mxCell>
        <mxCell id="u7Th_CYeHWjo8ZA-D8sN-111" style="edgeStyle=orthogonalEdgeStyle;rounded=0;orthogonalLoop=1;jettySize=auto;html=1;exitX=1;exitY=1;exitDx=0;exitDy=0;entryX=0.5;entryY=0;entryDx=0;entryDy=0;fontFamily=Helvetica;fontSize=12;fontColor=default;endArrow=none;endFill=0;" edge="1" parent="1" source="u7Th_CYeHWjo8ZA-D8sN-5" target="u7Th_CYeHWjo8ZA-D8sN-41">
          <mxGeometry relative="1" as="geometry" />
        </mxCell>
        <mxCell id="u7Th_CYeHWjo8ZA-D8sN-112" style="edgeStyle=orthogonalEdgeStyle;rounded=0;orthogonalLoop=1;jettySize=auto;html=1;exitX=0.75;exitY=1;exitDx=0;exitDy=0;entryX=0.5;entryY=0;entryDx=0;entryDy=0;fontFamily=Helvetica;fontSize=12;fontColor=default;endArrow=none;endFill=0;" edge="1" parent="1" source="u7Th_CYeHWjo8ZA-D8sN-5" target="u7Th_CYeHWjo8ZA-D8sN-42">
          <mxGeometry relative="1" as="geometry" />
        </mxCell>
        <mxCell id="u7Th_CYeHWjo8ZA-D8sN-5" value="FARE" style="shape=ext;margin=3;double=1;whiteSpace=wrap;html=1;align=center;" vertex="1" parent="1">
          <mxGeometry x="660" y="525" width="100" height="40" as="geometry" />
        </mxCell>
        <mxCell id="u7Th_CYeHWjo8ZA-D8sN-74" style="edgeStyle=orthogonalEdgeStyle;rounded=0;orthogonalLoop=1;jettySize=auto;html=1;exitX=0.5;exitY=1;exitDx=0;exitDy=0;entryX=0.5;entryY=0;entryDx=0;entryDy=0;fontFamily=Helvetica;fontSize=12;fontColor=default;shape=link;" edge="1" parent="1" source="u7Th_CYeHWjo8ZA-D8sN-6" target="u7Th_CYeHWjo8ZA-D8sN-35">
          <mxGeometry relative="1" as="geometry" />
        </mxCell>
        <mxCell id="u7Th_CYeHWjo8ZA-D8sN-77" value="N" style="edgeLabel;html=1;align=center;verticalAlign=middle;resizable=0;points=[];rounded=0;strokeColor=default;strokeWidth=1;fontFamily=Helvetica;fontSize=12;fontColor=default;fillColor=default;gradientColor=none;" vertex="1" connectable="0" parent="u7Th_CYeHWjo8ZA-D8sN-74">
          <mxGeometry x="0.2" y="2" relative="1" as="geometry">
            <mxPoint as="offset" />
          </mxGeometry>
        </mxCell>
        <mxCell id="u7Th_CYeHWjo8ZA-D8sN-106" style="edgeStyle=orthogonalEdgeStyle;rounded=0;orthogonalLoop=1;jettySize=auto;html=1;exitX=0.5;exitY=0;exitDx=0;exitDy=0;entryX=0.5;entryY=1;entryDx=0;entryDy=0;fontFamily=Helvetica;fontSize=12;fontColor=default;endArrow=none;endFill=0;" edge="1" parent="1" source="u7Th_CYeHWjo8ZA-D8sN-6" target="u7Th_CYeHWjo8ZA-D8sN-36">
          <mxGeometry relative="1" as="geometry" />
        </mxCell>
        <mxCell id="u7Th_CYeHWjo8ZA-D8sN-6" value="FLIGHT_LEG" style="shape=ext;margin=3;double=1;whiteSpace=wrap;html=1;align=center;" vertex="1" parent="1">
          <mxGeometry x="660" y="110" width="100" height="40" as="geometry" />
        </mxCell>
        <mxCell id="u7Th_CYeHWjo8ZA-D8sN-123" style="edgeStyle=orthogonalEdgeStyle;rounded=0;orthogonalLoop=1;jettySize=auto;html=1;exitX=0.25;exitY=1;exitDx=0;exitDy=0;entryX=1;entryY=0.5;entryDx=0;entryDy=0;fontFamily=Helvetica;fontSize=12;fontColor=default;endArrow=none;endFill=0;" edge="1" parent="1" source="u7Th_CYeHWjo8ZA-D8sN-7" target="u7Th_CYeHWjo8ZA-D8sN-24">
          <mxGeometry relative="1" as="geometry" />
        </mxCell>
        <mxCell id="u7Th_CYeHWjo8ZA-D8sN-125" style="edgeStyle=orthogonalEdgeStyle;rounded=0;orthogonalLoop=1;jettySize=auto;html=1;exitX=0;exitY=1;exitDx=0;exitDy=0;entryX=1;entryY=0.5;entryDx=0;entryDy=0;fontFamily=Helvetica;fontSize=12;fontColor=default;endArrow=none;endFill=0;" edge="1" parent="1" source="u7Th_CYeHWjo8ZA-D8sN-7" target="u7Th_CYeHWjo8ZA-D8sN-23">
          <mxGeometry relative="1" as="geometry" />
        </mxCell>
        <mxCell id="u7Th_CYeHWjo8ZA-D8sN-126" style="edgeStyle=orthogonalEdgeStyle;rounded=0;orthogonalLoop=1;jettySize=auto;html=1;exitX=0;exitY=0;exitDx=0;exitDy=0;entryX=1;entryY=0.5;entryDx=0;entryDy=0;fontFamily=Helvetica;fontSize=12;fontColor=default;endArrow=none;endFill=0;" edge="1" parent="1" source="u7Th_CYeHWjo8ZA-D8sN-7" target="u7Th_CYeHWjo8ZA-D8sN-22">
          <mxGeometry relative="1" as="geometry" />
        </mxCell>
        <mxCell id="u7Th_CYeHWjo8ZA-D8sN-7" value="AIRPLANE_TYPE" style="rounded=0;whiteSpace=wrap;html=1;" vertex="1" parent="1">
          <mxGeometry x="60" y="330" width="105" height="30" as="geometry" />
        </mxCell>
        <mxCell id="u7Th_CYeHWjo8ZA-D8sN-92" style="edgeStyle=orthogonalEdgeStyle;rounded=0;orthogonalLoop=1;jettySize=auto;html=1;exitX=1;exitY=0.5;exitDx=0;exitDy=0;entryX=0;entryY=0.5;entryDx=0;entryDy=0;fontFamily=Helvetica;fontSize=12;fontColor=default;endArrow=none;endFill=0;" edge="1" parent="1" source="u7Th_CYeHWjo8ZA-D8sN-8" target="u7Th_CYeHWjo8ZA-D8sN-29">
          <mxGeometry relative="1" as="geometry" />
        </mxCell>
        <mxCell id="u7Th_CYeHWjo8ZA-D8sN-96" value="1" style="edgeLabel;html=1;align=center;verticalAlign=middle;resizable=0;points=[];rounded=0;strokeColor=default;strokeWidth=1;fontFamily=Helvetica;fontSize=12;fontColor=default;fillColor=default;gradientColor=none;" vertex="1" connectable="0" parent="u7Th_CYeHWjo8ZA-D8sN-92">
          <mxGeometry x="0.4947" y="-2" relative="1" as="geometry">
            <mxPoint as="offset" />
          </mxGeometry>
        </mxCell>
        <mxCell id="u7Th_CYeHWjo8ZA-D8sN-121" style="edgeStyle=orthogonalEdgeStyle;rounded=0;orthogonalLoop=1;jettySize=auto;html=1;exitX=0.25;exitY=0;exitDx=0;exitDy=0;entryX=1;entryY=1;entryDx=0;entryDy=0;fontFamily=Helvetica;fontSize=12;fontColor=default;endArrow=none;endFill=0;" edge="1" parent="1" source="u7Th_CYeHWjo8ZA-D8sN-8" target="u7Th_CYeHWjo8ZA-D8sN-27">
          <mxGeometry relative="1" as="geometry" />
        </mxCell>
        <mxCell id="u7Th_CYeHWjo8ZA-D8sN-8" value="AIRPLANE" style="rounded=0;whiteSpace=wrap;html=1;" vertex="1" parent="1">
          <mxGeometry x="60" y="540" width="105" height="30" as="geometry" />
        </mxCell>
        <mxCell id="u7Th_CYeHWjo8ZA-D8sN-80" style="edgeStyle=orthogonalEdgeStyle;rounded=0;orthogonalLoop=1;jettySize=auto;html=1;exitX=0.5;exitY=1;exitDx=0;exitDy=0;entryX=0.5;entryY=0;entryDx=0;entryDy=0;fontFamily=Helvetica;fontSize=12;fontColor=default;endArrow=none;endFill=0;" edge="1" parent="1" source="u7Th_CYeHWjo8ZA-D8sN-9" target="u7Th_CYeHWjo8ZA-D8sN-39">
          <mxGeometry relative="1" as="geometry" />
        </mxCell>
        <mxCell id="u7Th_CYeHWjo8ZA-D8sN-81" value="1" style="edgeLabel;html=1;align=center;verticalAlign=middle;resizable=0;points=[];rounded=0;strokeColor=default;strokeWidth=1;fontFamily=Helvetica;fontSize=12;fontColor=default;fillColor=default;gradientColor=none;" vertex="1" connectable="0" parent="u7Th_CYeHWjo8ZA-D8sN-80">
          <mxGeometry x="0.3143" relative="1" as="geometry">
            <mxPoint as="offset" />
          </mxGeometry>
        </mxCell>
        <mxCell id="u7Th_CYeHWjo8ZA-D8sN-107" style="edgeStyle=orthogonalEdgeStyle;rounded=0;orthogonalLoop=1;jettySize=auto;html=1;exitX=0.25;exitY=0;exitDx=0;exitDy=0;entryX=1;entryY=0.5;entryDx=0;entryDy=0;fontFamily=Helvetica;fontSize=12;fontColor=default;endArrow=none;endFill=0;" edge="1" parent="1" source="u7Th_CYeHWjo8ZA-D8sN-9" target="u7Th_CYeHWjo8ZA-D8sN-37">
          <mxGeometry relative="1" as="geometry" />
        </mxCell>
        <mxCell id="u7Th_CYeHWjo8ZA-D8sN-108" style="edgeStyle=orthogonalEdgeStyle;rounded=0;orthogonalLoop=1;jettySize=auto;html=1;exitX=0;exitY=0.5;exitDx=0;exitDy=0;entryX=1;entryY=0.5;entryDx=0;entryDy=0;fontFamily=Helvetica;fontSize=12;fontColor=default;endArrow=none;endFill=0;" edge="1" parent="1" source="u7Th_CYeHWjo8ZA-D8sN-9" target="u7Th_CYeHWjo8ZA-D8sN-38">
          <mxGeometry relative="1" as="geometry" />
        </mxCell>
        <mxCell id="u7Th_CYeHWjo8ZA-D8sN-109" style="edgeStyle=orthogonalEdgeStyle;rounded=0;orthogonalLoop=1;jettySize=auto;html=1;exitX=0;exitY=1;exitDx=0;exitDy=0;entryX=1;entryY=0;entryDx=0;entryDy=0;fontFamily=Helvetica;fontSize=12;fontColor=default;endArrow=none;endFill=0;" edge="1" parent="1" source="u7Th_CYeHWjo8ZA-D8sN-9" target="u7Th_CYeHWjo8ZA-D8sN-40">
          <mxGeometry relative="1" as="geometry" />
        </mxCell>
        <mxCell id="u7Th_CYeHWjo8ZA-D8sN-9" value="FLIGHT" style="rounded=0;whiteSpace=wrap;html=1;" vertex="1" parent="1">
          <mxGeometry x="657.5" y="345" width="105" height="30" as="geometry" />
        </mxCell>
        <mxCell id="u7Th_CYeHWjo8ZA-D8sN-45" style="edgeStyle=orthogonalEdgeStyle;rounded=0;orthogonalLoop=1;jettySize=auto;html=1;exitX=0.5;exitY=0;exitDx=0;exitDy=0;entryX=0;entryY=1;entryDx=0;entryDy=0;fontFamily=Helvetica;fontSize=12;fontColor=default;endArrow=none;endFill=0;" edge="1" parent="1" source="u7Th_CYeHWjo8ZA-D8sN-10" target="u7Th_CYeHWjo8ZA-D8sN-6">
          <mxGeometry relative="1" as="geometry">
            <Array as="points">
              <mxPoint x="515" y="230" />
              <mxPoint x="660" y="230" />
            </Array>
          </mxGeometry>
        </mxCell>
        <mxCell id="u7Th_CYeHWjo8ZA-D8sN-46" value="1" style="edgeLabel;html=1;align=center;verticalAlign=middle;resizable=0;points=[];rounded=0;strokeColor=default;strokeWidth=1;fontFamily=Helvetica;fontSize=12;fontColor=default;fillColor=default;gradientColor=none;" vertex="1" connectable="0" parent="u7Th_CYeHWjo8ZA-D8sN-45">
          <mxGeometry x="-0.8545" y="-2" relative="1" as="geometry">
            <mxPoint as="offset" />
          </mxGeometry>
        </mxCell>
        <mxCell id="u7Th_CYeHWjo8ZA-D8sN-10" value="instance_of" style="rhombus;whiteSpace=wrap;html=1;rounded=0;strokeWidth=1;perimeterSpacing=0;strokeColor=default;gradientColor=none;double=1;" vertex="1" parent="1">
          <mxGeometry x="470" y="280" width="90" height="80" as="geometry" />
        </mxCell>
        <mxCell id="u7Th_CYeHWjo8ZA-D8sN-98" style="edgeStyle=orthogonalEdgeStyle;rounded=0;orthogonalLoop=1;jettySize=auto;html=1;exitX=0.5;exitY=0;exitDx=0;exitDy=0;entryX=0.5;entryY=1;entryDx=0;entryDy=0;fontFamily=Helvetica;fontSize=12;fontColor=default;endArrow=none;endFill=0;" edge="1" parent="1" source="u7Th_CYeHWjo8ZA-D8sN-11" target="u7Th_CYeHWjo8ZA-D8sN-3">
          <mxGeometry relative="1" as="geometry" />
        </mxCell>
        <mxCell id="u7Th_CYeHWjo8ZA-D8sN-99" value="1" style="edgeLabel;html=1;align=center;verticalAlign=middle;resizable=0;points=[];rounded=0;strokeColor=default;strokeWidth=1;fontFamily=Helvetica;fontSize=12;fontColor=default;fillColor=default;gradientColor=none;" vertex="1" connectable="0" parent="u7Th_CYeHWjo8ZA-D8sN-98">
          <mxGeometry x="-0.7181" y="-1" relative="1" as="geometry">
            <mxPoint x="1" as="offset" />
          </mxGeometry>
        </mxCell>
        <mxCell id="u7Th_CYeHWjo8ZA-D8sN-100" style="edgeStyle=orthogonalEdgeStyle;rounded=0;orthogonalLoop=1;jettySize=auto;html=1;exitX=0;exitY=1;exitDx=0;exitDy=0;entryX=1;entryY=0.75;entryDx=0;entryDy=0;fontFamily=Helvetica;fontSize=12;fontColor=default;shape=link;" edge="1" parent="1" source="u7Th_CYeHWjo8ZA-D8sN-11" target="u7Th_CYeHWjo8ZA-D8sN-4">
          <mxGeometry relative="1" as="geometry" />
        </mxCell>
        <mxCell id="u7Th_CYeHWjo8ZA-D8sN-101" value="N" style="edgeLabel;html=1;align=center;verticalAlign=middle;resizable=0;points=[];rounded=0;strokeColor=default;strokeWidth=1;fontFamily=Helvetica;fontSize=12;fontColor=default;fillColor=default;gradientColor=none;" vertex="1" connectable="0" parent="u7Th_CYeHWjo8ZA-D8sN-100">
          <mxGeometry x="-0.6496" y="-1" relative="1" as="geometry">
            <mxPoint as="offset" />
          </mxGeometry>
        </mxCell>
        <mxCell id="u7Th_CYeHWjo8ZA-D8sN-115" style="edgeStyle=orthogonalEdgeStyle;rounded=0;orthogonalLoop=1;jettySize=auto;html=1;exitX=0;exitY=0;exitDx=0;exitDy=0;entryX=1;entryY=0.5;entryDx=0;entryDy=0;fontFamily=Helvetica;fontSize=12;fontColor=default;endArrow=none;endFill=0;" edge="1" parent="1" source="u7Th_CYeHWjo8ZA-D8sN-11" target="u7Th_CYeHWjo8ZA-D8sN-33">
          <mxGeometry relative="1" as="geometry" />
        </mxCell>
        <mxCell id="u7Th_CYeHWjo8ZA-D8sN-116" style="edgeStyle=orthogonalEdgeStyle;rounded=0;orthogonalLoop=1;jettySize=auto;html=1;exitX=1;exitY=0;exitDx=0;exitDy=0;entryX=0;entryY=0.5;entryDx=0;entryDy=0;fontFamily=Helvetica;fontSize=12;fontColor=default;endArrow=none;endFill=0;" edge="1" parent="1" source="u7Th_CYeHWjo8ZA-D8sN-11" target="u7Th_CYeHWjo8ZA-D8sN-32">
          <mxGeometry relative="1" as="geometry" />
        </mxCell>
        <mxCell id="u7Th_CYeHWjo8ZA-D8sN-11" value="reservation" style="rhombus;whiteSpace=wrap;html=1;rounded=0;strokeColor=default;strokeWidth=1;align=center;verticalAlign=middle;fontFamily=Helvetica;fontSize=12;fontColor=default;fillColor=default;gradientColor=none;double=1;" vertex="1" parent="1">
          <mxGeometry x="369" y="650" width="85" height="80" as="geometry" />
        </mxCell>
        <mxCell id="u7Th_CYeHWjo8ZA-D8sN-12" value="airport_code" style="ellipse;whiteSpace=wrap;html=1;rounded=0;strokeColor=default;strokeWidth=1;align=center;verticalAlign=middle;fontFamily=Helvetica;fontSize=12;fontColor=default;fillColor=default;gradientColor=none;fontStyle=4" vertex="1" parent="1">
          <mxGeometry x="10" y="70" width="90" height="30" as="geometry" />
        </mxCell>
        <mxCell id="u7Th_CYeHWjo8ZA-D8sN-14" value="city" style="ellipse;whiteSpace=wrap;html=1;rounded=0;strokeColor=default;strokeWidth=1;align=center;verticalAlign=middle;fontFamily=Helvetica;fontSize=12;fontColor=default;fillColor=default;gradientColor=none;" vertex="1" parent="1">
          <mxGeometry x="105" y="45" width="60" height="30" as="geometry" />
        </mxCell>
        <mxCell id="u7Th_CYeHWjo8ZA-D8sN-15" value="state" style="ellipse;whiteSpace=wrap;html=1;rounded=0;strokeColor=default;strokeWidth=1;align=center;verticalAlign=middle;fontFamily=Helvetica;fontSize=12;fontColor=default;fillColor=default;gradientColor=none;" vertex="1" parent="1">
          <mxGeometry x="165" y="60" width="60" height="30" as="geometry" />
        </mxCell>
        <mxCell id="u7Th_CYeHWjo8ZA-D8sN-16" value="name" style="ellipse;whiteSpace=wrap;html=1;rounded=0;strokeColor=default;strokeWidth=1;align=center;verticalAlign=middle;fontFamily=Helvetica;fontSize=12;fontColor=default;fillColor=default;gradientColor=none;" vertex="1" parent="1">
          <mxGeometry x="209" y="100" width="60" height="30" as="geometry" />
        </mxCell>
        <mxCell id="u7Th_CYeHWjo8ZA-D8sN-70" style="edgeStyle=orthogonalEdgeStyle;rounded=0;orthogonalLoop=1;jettySize=auto;html=1;exitX=1;exitY=0;exitDx=0;exitDy=0;entryX=0;entryY=0.5;entryDx=0;entryDy=0;fontFamily=Helvetica;fontSize=12;fontColor=default;endArrow=none;endFill=0;" edge="1" parent="1" source="u7Th_CYeHWjo8ZA-D8sN-17" target="u7Th_CYeHWjo8ZA-D8sN-19">
          <mxGeometry relative="1" as="geometry" />
        </mxCell>
        <mxCell id="u7Th_CYeHWjo8ZA-D8sN-72" style="edgeStyle=orthogonalEdgeStyle;rounded=0;orthogonalLoop=1;jettySize=auto;html=1;exitX=1;exitY=0.5;exitDx=0;exitDy=0;entryX=0;entryY=0;entryDx=0;entryDy=0;fontFamily=Helvetica;fontSize=12;fontColor=default;shape=link;" edge="1" parent="1" source="u7Th_CYeHWjo8ZA-D8sN-17" target="u7Th_CYeHWjo8ZA-D8sN-6">
          <mxGeometry relative="1" as="geometry" />
        </mxCell>
        <mxCell id="u7Th_CYeHWjo8ZA-D8sN-75" value="N" style="edgeLabel;html=1;align=center;verticalAlign=middle;resizable=0;points=[];rounded=0;strokeColor=default;strokeWidth=1;fontFamily=Helvetica;fontSize=12;fontColor=default;fillColor=default;gradientColor=none;" vertex="1" connectable="0" parent="u7Th_CYeHWjo8ZA-D8sN-72">
          <mxGeometry x="-0.7882" y="-3" relative="1" as="geometry">
            <mxPoint as="offset" />
          </mxGeometry>
        </mxCell>
        <mxCell id="u7Th_CYeHWjo8ZA-D8sN-17" value="departure_&lt;div&gt;airport&lt;/div&gt;" style="rhombus;whiteSpace=wrap;html=1;rounded=0;strokeColor=default;strokeWidth=1;align=center;verticalAlign=middle;fontFamily=Helvetica;fontSize=12;fontColor=default;fillColor=default;gradientColor=none;" vertex="1" parent="1">
          <mxGeometry x="350" y="45" width="80" height="80" as="geometry" />
        </mxCell>
        <mxCell id="u7Th_CYeHWjo8ZA-D8sN-58" style="edgeStyle=orthogonalEdgeStyle;rounded=0;orthogonalLoop=1;jettySize=auto;html=1;exitX=0;exitY=0;exitDx=0;exitDy=0;fontFamily=Helvetica;fontSize=12;fontColor=default;endArrow=none;endFill=0;" edge="1" parent="1" source="u7Th_CYeHWjo8ZA-D8sN-18">
          <mxGeometry relative="1" as="geometry">
            <mxPoint x="250" y="170" as="targetPoint" />
          </mxGeometry>
        </mxCell>
        <mxCell id="u7Th_CYeHWjo8ZA-D8sN-68" value="1" style="edgeLabel;html=1;align=center;verticalAlign=middle;resizable=0;points=[];rounded=0;strokeColor=default;strokeWidth=1;fontFamily=Helvetica;fontSize=12;fontColor=default;fillColor=default;gradientColor=none;" vertex="1" connectable="0" parent="u7Th_CYeHWjo8ZA-D8sN-58">
          <mxGeometry x="-0.6129" y="2" relative="1" as="geometry">
            <mxPoint as="offset" />
          </mxGeometry>
        </mxCell>
        <mxCell id="u7Th_CYeHWjo8ZA-D8sN-71" style="edgeStyle=orthogonalEdgeStyle;rounded=0;orthogonalLoop=1;jettySize=auto;html=1;exitX=1;exitY=0;exitDx=0;exitDy=0;entryX=0;entryY=0.5;entryDx=0;entryDy=0;fontFamily=Helvetica;fontSize=12;fontColor=default;endArrow=none;endFill=0;" edge="1" parent="1" source="u7Th_CYeHWjo8ZA-D8sN-18" target="u7Th_CYeHWjo8ZA-D8sN-20">
          <mxGeometry relative="1" as="geometry" />
        </mxCell>
        <mxCell id="u7Th_CYeHWjo8ZA-D8sN-73" style="edgeStyle=orthogonalEdgeStyle;rounded=0;orthogonalLoop=1;jettySize=auto;html=1;exitX=1;exitY=0.5;exitDx=0;exitDy=0;entryX=0;entryY=0.5;entryDx=0;entryDy=0;fontFamily=Helvetica;fontSize=12;fontColor=default;shape=link;" edge="1" parent="1" source="u7Th_CYeHWjo8ZA-D8sN-18" target="u7Th_CYeHWjo8ZA-D8sN-6">
          <mxGeometry relative="1" as="geometry">
            <Array as="points">
              <mxPoint x="580" y="210" />
              <mxPoint x="580" y="130" />
            </Array>
          </mxGeometry>
        </mxCell>
        <mxCell id="u7Th_CYeHWjo8ZA-D8sN-76" value="N" style="edgeLabel;html=1;align=center;verticalAlign=middle;resizable=0;points=[];rounded=0;strokeColor=default;strokeWidth=1;fontFamily=Helvetica;fontSize=12;fontColor=default;fillColor=default;gradientColor=none;" vertex="1" connectable="0" parent="u7Th_CYeHWjo8ZA-D8sN-73">
          <mxGeometry x="-0.8065" y="-3" relative="1" as="geometry">
            <mxPoint as="offset" />
          </mxGeometry>
        </mxCell>
        <mxCell id="u7Th_CYeHWjo8ZA-D8sN-18" value="arrival_&lt;div&gt;airport&lt;/div&gt;" style="rhombus;whiteSpace=wrap;html=1;rounded=0;strokeColor=default;strokeWidth=1;align=center;verticalAlign=middle;fontFamily=Helvetica;fontSize=12;fontColor=default;fillColor=default;gradientColor=none;" vertex="1" parent="1">
          <mxGeometry x="350" y="170" width="80" height="80" as="geometry" />
        </mxCell>
        <mxCell id="u7Th_CYeHWjo8ZA-D8sN-19" value="scheduled_dep_time" style="ellipse;whiteSpace=wrap;html=1;rounded=0;strokeColor=default;strokeWidth=1;align=center;verticalAlign=middle;fontFamily=Helvetica;fontSize=12;fontColor=default;fillColor=default;gradientColor=none;" vertex="1" parent="1">
          <mxGeometry x="415" y="30" width="150" height="30" as="geometry" />
        </mxCell>
        <mxCell id="u7Th_CYeHWjo8ZA-D8sN-20" value="scheduled_arr_time" style="ellipse;whiteSpace=wrap;html=1;rounded=0;strokeColor=default;strokeWidth=1;align=center;verticalAlign=middle;fontFamily=Helvetica;fontSize=12;fontColor=default;fillColor=default;gradientColor=none;" vertex="1" parent="1">
          <mxGeometry x="415" y="160" width="150" height="30" as="geometry" />
        </mxCell>
        <mxCell id="u7Th_CYeHWjo8ZA-D8sN-85" style="edgeStyle=orthogonalEdgeStyle;rounded=0;orthogonalLoop=1;jettySize=auto;html=1;exitX=0.5;exitY=1;exitDx=0;exitDy=0;entryX=0.5;entryY=0;entryDx=0;entryDy=0;fontFamily=Helvetica;fontSize=12;fontColor=default;endArrow=none;endFill=0;" edge="1" parent="1" source="u7Th_CYeHWjo8ZA-D8sN-21" target="u7Th_CYeHWjo8ZA-D8sN-7">
          <mxGeometry relative="1" as="geometry" />
        </mxCell>
        <mxCell id="u7Th_CYeHWjo8ZA-D8sN-87" value="N" style="edgeLabel;html=1;align=center;verticalAlign=middle;resizable=0;points=[];rounded=0;strokeColor=default;strokeWidth=1;fontFamily=Helvetica;fontSize=12;fontColor=default;fillColor=default;gradientColor=none;" vertex="1" connectable="0" parent="u7Th_CYeHWjo8ZA-D8sN-85">
          <mxGeometry x="-0.2" y="1" relative="1" as="geometry">
            <mxPoint as="offset" />
          </mxGeometry>
        </mxCell>
        <mxCell id="u7Th_CYeHWjo8ZA-D8sN-21" value="can_&lt;div&gt;land&lt;/div&gt;" style="rhombus;whiteSpace=wrap;html=1;rounded=0;strokeColor=default;strokeWidth=1;align=center;verticalAlign=middle;fontFamily=Helvetica;fontSize=12;fontColor=default;fillColor=default;gradientColor=none;" vertex="1" parent="1">
          <mxGeometry x="72.5" y="205" width="80" height="80" as="geometry" />
        </mxCell>
        <mxCell id="u7Th_CYeHWjo8ZA-D8sN-22" value="company" style="ellipse;whiteSpace=wrap;html=1;rounded=0;strokeColor=default;strokeWidth=1;align=center;verticalAlign=middle;fontFamily=Helvetica;fontSize=12;fontColor=default;fillColor=default;gradientColor=none;" vertex="1" parent="1">
          <mxGeometry x="-20" y="285" width="80" height="40" as="geometry" />
        </mxCell>
        <mxCell id="u7Th_CYeHWjo8ZA-D8sN-23" value="type_name" style="ellipse;whiteSpace=wrap;html=1;rounded=0;strokeColor=default;strokeWidth=1;align=center;verticalAlign=middle;fontFamily=Helvetica;fontSize=12;fontColor=default;fillColor=default;gradientColor=none;fontStyle=4" vertex="1" parent="1">
          <mxGeometry x="-40" y="340" width="80" height="40" as="geometry" />
        </mxCell>
        <mxCell id="u7Th_CYeHWjo8ZA-D8sN-24" value="max_seats" style="ellipse;whiteSpace=wrap;html=1;rounded=0;strokeColor=default;strokeWidth=1;align=center;verticalAlign=middle;fontFamily=Helvetica;fontSize=12;fontColor=default;fillColor=default;gradientColor=none;" vertex="1" parent="1">
          <mxGeometry x="-20" y="390" width="80" height="40" as="geometry" />
        </mxCell>
        <mxCell id="u7Th_CYeHWjo8ZA-D8sN-88" style="edgeStyle=orthogonalEdgeStyle;rounded=0;orthogonalLoop=1;jettySize=auto;html=1;exitX=0.5;exitY=0;exitDx=0;exitDy=0;entryX=0.5;entryY=1;entryDx=0;entryDy=0;fontFamily=Helvetica;fontSize=12;fontColor=default;endArrow=none;endFill=0;" edge="1" parent="1" source="u7Th_CYeHWjo8ZA-D8sN-26" target="u7Th_CYeHWjo8ZA-D8sN-7">
          <mxGeometry relative="1" as="geometry" />
        </mxCell>
        <mxCell id="u7Th_CYeHWjo8ZA-D8sN-90" value="1" style="edgeLabel;html=1;align=center;verticalAlign=middle;resizable=0;points=[];rounded=0;strokeColor=default;strokeWidth=1;fontFamily=Helvetica;fontSize=12;fontColor=default;fillColor=default;gradientColor=none;" vertex="1" connectable="0" parent="u7Th_CYeHWjo8ZA-D8sN-88">
          <mxGeometry x="-0.0123" y="-1" relative="1" as="geometry">
            <mxPoint x="1" y="1" as="offset" />
          </mxGeometry>
        </mxCell>
        <mxCell id="u7Th_CYeHWjo8ZA-D8sN-89" style="edgeStyle=orthogonalEdgeStyle;rounded=0;orthogonalLoop=1;jettySize=auto;html=1;exitX=0.5;exitY=1;exitDx=0;exitDy=0;entryX=0.5;entryY=0;entryDx=0;entryDy=0;fontFamily=Helvetica;fontSize=12;fontColor=default;shape=link;" edge="1" parent="1" source="u7Th_CYeHWjo8ZA-D8sN-26" target="u7Th_CYeHWjo8ZA-D8sN-8">
          <mxGeometry relative="1" as="geometry" />
        </mxCell>
        <mxCell id="u7Th_CYeHWjo8ZA-D8sN-91" value="N" style="edgeLabel;html=1;align=center;verticalAlign=middle;resizable=0;points=[];rounded=0;strokeColor=default;strokeWidth=1;fontFamily=Helvetica;fontSize=12;fontColor=default;fillColor=default;gradientColor=none;" vertex="1" connectable="0" parent="u7Th_CYeHWjo8ZA-D8sN-89">
          <mxGeometry x="-0.0083" y="-1" relative="1" as="geometry">
            <mxPoint x="1" y="1" as="offset" />
          </mxGeometry>
        </mxCell>
        <mxCell id="u7Th_CYeHWjo8ZA-D8sN-26" value="type" style="rhombus;whiteSpace=wrap;html=1;rounded=0;strokeColor=default;strokeWidth=1;align=center;verticalAlign=middle;fontFamily=Helvetica;fontSize=12;fontColor=default;fillColor=default;gradientColor=none;" vertex="1" parent="1">
          <mxGeometry x="73" y="400" width="80" height="80" as="geometry" />
        </mxCell>
        <mxCell id="u7Th_CYeHWjo8ZA-D8sN-27" value="airplane_id" style="ellipse;whiteSpace=wrap;html=1;rounded=0;strokeColor=default;strokeWidth=1;align=center;verticalAlign=middle;fontFamily=Helvetica;fontSize=12;fontColor=default;fillColor=default;gradientColor=none;fontStyle=4" vertex="1" parent="1">
          <mxGeometry x="10" y="490" width="80" height="40" as="geometry" />
        </mxCell>
        <mxCell id="u7Th_CYeHWjo8ZA-D8sN-28" value="total_no_of_seats" style="ellipse;whiteSpace=wrap;html=1;rounded=0;strokeColor=default;strokeWidth=1;align=center;verticalAlign=middle;fontFamily=Helvetica;fontSize=12;fontColor=default;fillColor=default;gradientColor=none;" vertex="1" parent="1">
          <mxGeometry x="153" y="490" width="120" height="40" as="geometry" />
        </mxCell>
        <mxCell id="u7Th_CYeHWjo8ZA-D8sN-93" style="edgeStyle=orthogonalEdgeStyle;rounded=0;orthogonalLoop=1;jettySize=auto;html=1;exitX=1;exitY=0.5;exitDx=0;exitDy=0;entryX=0;entryY=0.5;entryDx=0;entryDy=0;fontFamily=Helvetica;fontSize=12;fontColor=default;shape=link;" edge="1" parent="1" source="u7Th_CYeHWjo8ZA-D8sN-29" target="u7Th_CYeHWjo8ZA-D8sN-3">
          <mxGeometry relative="1" as="geometry" />
        </mxCell>
        <mxCell id="u7Th_CYeHWjo8ZA-D8sN-97" value="N" style="edgeLabel;html=1;align=center;verticalAlign=middle;resizable=0;points=[];rounded=0;strokeColor=default;strokeWidth=1;fontFamily=Helvetica;fontSize=12;fontColor=default;fillColor=default;gradientColor=none;" vertex="1" connectable="0" parent="u7Th_CYeHWjo8ZA-D8sN-93">
          <mxGeometry x="-0.1333" relative="1" as="geometry">
            <mxPoint as="offset" />
          </mxGeometry>
        </mxCell>
        <mxCell id="u7Th_CYeHWjo8ZA-D8sN-29" value="assigned" style="rhombus;whiteSpace=wrap;html=1;rounded=0;strokeColor=default;strokeWidth=1;align=center;verticalAlign=middle;fontFamily=Helvetica;fontSize=12;fontColor=default;fillColor=default;gradientColor=none;" vertex="1" parent="1">
          <mxGeometry x="260" y="515" width="80" height="80" as="geometry" />
        </mxCell>
        <mxCell id="u7Th_CYeHWjo8ZA-D8sN-30" value="no_of_avail_seats" style="ellipse;whiteSpace=wrap;html=1;rounded=0;strokeColor=default;strokeWidth=1;align=center;verticalAlign=middle;fontFamily=Helvetica;fontSize=12;fontColor=default;fillColor=default;gradientColor=none;" vertex="1" parent="1">
          <mxGeometry x="520" y="490" width="120" height="40" as="geometry" />
        </mxCell>
        <mxCell id="u7Th_CYeHWjo8ZA-D8sN-31" value="date" style="ellipse;whiteSpace=wrap;html=1;rounded=0;strokeColor=default;strokeWidth=1;align=center;verticalAlign=middle;fontFamily=Helvetica;fontSize=12;fontColor=default;fillColor=default;gradientColor=none;dashed=1;" vertex="1" parent="1">
          <mxGeometry x="540" y="550" width="60" height="40" as="geometry" />
        </mxCell>
        <mxCell id="u7Th_CYeHWjo8ZA-D8sN-32" value="Cphone" style="ellipse;whiteSpace=wrap;html=1;rounded=0;strokeColor=default;strokeWidth=1;align=center;verticalAlign=middle;fontFamily=Helvetica;fontSize=12;fontColor=default;fillColor=default;gradientColor=none;" vertex="1" parent="1">
          <mxGeometry x="450" y="640" width="80" height="40" as="geometry" />
        </mxCell>
        <mxCell id="u7Th_CYeHWjo8ZA-D8sN-33" value="customer_name" style="ellipse;whiteSpace=wrap;html=1;rounded=0;strokeColor=default;strokeWidth=1;align=center;verticalAlign=middle;fontFamily=Helvetica;fontSize=12;fontColor=default;fillColor=default;gradientColor=none;" vertex="1" parent="1">
          <mxGeometry x="269" y="640" width="100" height="40" as="geometry" />
        </mxCell>
        <mxCell id="u7Th_CYeHWjo8ZA-D8sN-34" value="seat_no" style="ellipse;whiteSpace=wrap;html=1;rounded=0;strokeColor=default;strokeWidth=1;align=center;verticalAlign=middle;fontFamily=Helvetica;fontSize=12;fontColor=default;fillColor=default;gradientColor=none;dashed=1;labelBorderColor=none;fontStyle=4" vertex="1" parent="1">
          <mxGeometry x="105" y="630" width="60" height="40" as="geometry" />
        </mxCell>
        <mxCell id="u7Th_CYeHWjo8ZA-D8sN-78" style="edgeStyle=orthogonalEdgeStyle;rounded=0;orthogonalLoop=1;jettySize=auto;html=1;exitX=0.5;exitY=1;exitDx=0;exitDy=0;fontFamily=Helvetica;fontSize=12;fontColor=default;endArrow=none;endFill=0;" edge="1" parent="1" source="u7Th_CYeHWjo8ZA-D8sN-35" target="u7Th_CYeHWjo8ZA-D8sN-9">
          <mxGeometry relative="1" as="geometry" />
        </mxCell>
        <mxCell id="u7Th_CYeHWjo8ZA-D8sN-79" value="1" style="edgeLabel;html=1;align=center;verticalAlign=middle;resizable=0;points=[];rounded=0;strokeColor=default;strokeWidth=1;fontFamily=Helvetica;fontSize=12;fontColor=default;fillColor=default;gradientColor=none;" vertex="1" connectable="0" parent="u7Th_CYeHWjo8ZA-D8sN-78">
          <mxGeometry x="-0.2667" y="1" relative="1" as="geometry">
            <mxPoint as="offset" />
          </mxGeometry>
        </mxCell>
        <mxCell id="u7Th_CYeHWjo8ZA-D8sN-35" value="legs" style="rhombus;whiteSpace=wrap;html=1;rounded=0;strokeColor=default;strokeWidth=1;align=center;verticalAlign=middle;fontFamily=Helvetica;fontSize=12;fontColor=default;fillColor=default;gradientColor=none;double=1;" vertex="1" parent="1">
          <mxGeometry x="670" y="205" width="80" height="80" as="geometry" />
        </mxCell>
        <mxCell id="u7Th_CYeHWjo8ZA-D8sN-36" value="leg_no" style="ellipse;whiteSpace=wrap;html=1;rounded=0;strokeColor=default;strokeWidth=1;align=center;verticalAlign=middle;fontFamily=Helvetica;fontSize=12;fontColor=default;fillColor=default;gradientColor=none;dashed=1;labelBorderColor=none;fontStyle=4" vertex="1" parent="1">
          <mxGeometry x="680" y="45" width="60" height="40" as="geometry" />
        </mxCell>
        <mxCell id="u7Th_CYeHWjo8ZA-D8sN-37" value="number" style="ellipse;whiteSpace=wrap;html=1;rounded=0;strokeColor=default;strokeWidth=1;align=center;verticalAlign=middle;fontFamily=Helvetica;fontSize=12;fontColor=default;fillColor=default;gradientColor=none;fontStyle=4" vertex="1" parent="1">
          <mxGeometry x="605" y="290" width="60" height="40" as="geometry" />
        </mxCell>
        <mxCell id="u7Th_CYeHWjo8ZA-D8sN-38" value="airlane" style="ellipse;whiteSpace=wrap;html=1;rounded=0;strokeColor=default;strokeWidth=1;align=center;verticalAlign=middle;fontFamily=Helvetica;fontSize=12;fontColor=default;fillColor=default;gradientColor=none;" vertex="1" parent="1">
          <mxGeometry x="570" y="345" width="60" height="30" as="geometry" />
        </mxCell>
        <mxCell id="u7Th_CYeHWjo8ZA-D8sN-82" style="edgeStyle=orthogonalEdgeStyle;rounded=0;orthogonalLoop=1;jettySize=auto;html=1;exitX=0.5;exitY=1;exitDx=0;exitDy=0;entryX=0.5;entryY=0;entryDx=0;entryDy=0;fontFamily=Helvetica;fontSize=12;fontColor=default;shape=link;" edge="1" parent="1" source="u7Th_CYeHWjo8ZA-D8sN-39" target="u7Th_CYeHWjo8ZA-D8sN-5">
          <mxGeometry relative="1" as="geometry" />
        </mxCell>
        <mxCell id="u7Th_CYeHWjo8ZA-D8sN-83" value="N" style="edgeLabel;html=1;align=center;verticalAlign=middle;resizable=0;points=[];rounded=0;strokeColor=default;strokeWidth=1;fontFamily=Helvetica;fontSize=12;fontColor=default;fillColor=default;gradientColor=none;" vertex="1" connectable="0" parent="u7Th_CYeHWjo8ZA-D8sN-82">
          <mxGeometry x="-0.0286" y="2" relative="1" as="geometry">
            <mxPoint as="offset" />
          </mxGeometry>
        </mxCell>
        <mxCell id="u7Th_CYeHWjo8ZA-D8sN-39" value="fares" style="rhombus;whiteSpace=wrap;html=1;rounded=0;strokeWidth=1;perimeterSpacing=0;strokeColor=default;gradientColor=none;double=1;" vertex="1" parent="1">
          <mxGeometry x="665" y="410" width="90" height="80" as="geometry" />
        </mxCell>
        <mxCell id="u7Th_CYeHWjo8ZA-D8sN-40" value="weekdays" style="ellipse;whiteSpace=wrap;html=1;rounded=0;strokeColor=default;strokeWidth=1;align=center;verticalAlign=middle;fontFamily=Helvetica;fontSize=12;fontColor=default;fillColor=default;gradientColor=none;" vertex="1" parent="1">
          <mxGeometry x="580" y="390" width="80" height="40" as="geometry" />
        </mxCell>
        <mxCell id="u7Th_CYeHWjo8ZA-D8sN-41" value="restrictions" style="ellipse;whiteSpace=wrap;html=1;rounded=0;strokeColor=default;strokeWidth=1;align=center;verticalAlign=middle;fontFamily=Helvetica;fontSize=12;fontColor=default;fillColor=default;gradientColor=none;" vertex="1" parent="1">
          <mxGeometry x="740" y="580" width="80" height="40" as="geometry" />
        </mxCell>
        <mxCell id="u7Th_CYeHWjo8ZA-D8sN-42" value="amount" style="ellipse;whiteSpace=wrap;html=1;rounded=0;strokeColor=default;strokeWidth=1;align=center;verticalAlign=middle;fontFamily=Helvetica;fontSize=12;fontColor=default;fillColor=default;gradientColor=none;" vertex="1" parent="1">
          <mxGeometry x="700" y="620" width="70" height="30" as="geometry" />
        </mxCell>
        <mxCell id="u7Th_CYeHWjo8ZA-D8sN-113" style="edgeStyle=orthogonalEdgeStyle;rounded=0;orthogonalLoop=1;jettySize=auto;html=1;exitX=0.5;exitY=0;exitDx=0;exitDy=0;entryX=0.25;entryY=1;entryDx=0;entryDy=0;fontFamily=Helvetica;fontSize=12;fontColor=default;endArrow=none;endFill=0;" edge="1" parent="1" source="u7Th_CYeHWjo8ZA-D8sN-43" target="u7Th_CYeHWjo8ZA-D8sN-5">
          <mxGeometry relative="1" as="geometry" />
        </mxCell>
        <mxCell id="u7Th_CYeHWjo8ZA-D8sN-43" value="code" style="ellipse;whiteSpace=wrap;html=1;rounded=0;strokeColor=default;strokeWidth=1;align=center;verticalAlign=middle;fontFamily=Helvetica;fontSize=12;fontColor=default;fillColor=default;gradientColor=none;dashed=1;" vertex="1" parent="1">
          <mxGeometry x="650" y="590" width="50" height="30" as="geometry" />
        </mxCell>
        <mxCell id="u7Th_CYeHWjo8ZA-D8sN-59" style="edgeStyle=orthogonalEdgeStyle;rounded=0;orthogonalLoop=1;jettySize=auto;html=1;exitX=0.5;exitY=0;exitDx=0;exitDy=0;entryX=1;entryY=1;entryDx=0;entryDy=0;fontFamily=Helvetica;fontSize=12;fontColor=default;endArrow=none;endFill=0;" edge="1" parent="1" source="u7Th_CYeHWjo8ZA-D8sN-48" target="u7Th_CYeHWjo8ZA-D8sN-1">
          <mxGeometry relative="1" as="geometry">
            <Array as="points">
              <mxPoint x="326" y="280" />
              <mxPoint x="230" y="280" />
              <mxPoint x="230" y="245" />
              <mxPoint x="165" y="245" />
            </Array>
          </mxGeometry>
        </mxCell>
        <mxCell id="u7Th_CYeHWjo8ZA-D8sN-65" value="1" style="edgeLabel;html=1;align=center;verticalAlign=middle;resizable=0;points=[];rounded=0;strokeColor=default;strokeWidth=1;fontFamily=Helvetica;fontSize=12;fontColor=default;fillColor=default;gradientColor=none;" vertex="1" connectable="0" parent="u7Th_CYeHWjo8ZA-D8sN-59">
          <mxGeometry x="-0.8852" relative="1" as="geometry">
            <mxPoint as="offset" />
          </mxGeometry>
        </mxCell>
        <mxCell id="u7Th_CYeHWjo8ZA-D8sN-63" style="edgeStyle=orthogonalEdgeStyle;rounded=0;orthogonalLoop=1;jettySize=auto;html=1;exitX=1;exitY=1;exitDx=0;exitDy=0;entryX=0;entryY=0;entryDx=0;entryDy=0;fontFamily=Helvetica;fontSize=12;fontColor=default;endArrow=none;endFill=0;" edge="1" parent="1" source="u7Th_CYeHWjo8ZA-D8sN-48" target="u7Th_CYeHWjo8ZA-D8sN-3">
          <mxGeometry relative="1" as="geometry">
            <Array as="points">
              <mxPoint x="380" y="375" />
              <mxPoint x="380" y="535" />
            </Array>
          </mxGeometry>
        </mxCell>
        <mxCell id="u7Th_CYeHWjo8ZA-D8sN-64" value="N" style="edgeLabel;html=1;align=center;verticalAlign=middle;resizable=0;points=[];rounded=0;strokeColor=default;strokeWidth=1;fontFamily=Helvetica;fontSize=12;fontColor=default;fillColor=default;gradientColor=none;" vertex="1" connectable="0" parent="u7Th_CYeHWjo8ZA-D8sN-63">
          <mxGeometry x="-0.7839" y="-1" relative="1" as="geometry">
            <mxPoint as="offset" />
          </mxGeometry>
        </mxCell>
        <mxCell id="u7Th_CYeHWjo8ZA-D8sN-48" value="departs" style="rhombus;whiteSpace=wrap;html=1;rounded=0;strokeColor=default;strokeWidth=1;align=center;verticalAlign=middle;fontFamily=Helvetica;fontSize=12;fontColor=default;fillColor=default;gradientColor=none;" vertex="1" parent="1">
          <mxGeometry x="293" y="330" width="66" height="60" as="geometry" />
        </mxCell>
        <mxCell id="u7Th_CYeHWjo8ZA-D8sN-54" style="edgeStyle=orthogonalEdgeStyle;rounded=0;orthogonalLoop=1;jettySize=auto;html=1;exitX=0.5;exitY=0;exitDx=0;exitDy=0;fontFamily=Helvetica;fontSize=12;fontColor=default;endArrow=none;endFill=0;entryX=1;entryY=0.75;entryDx=0;entryDy=0;" edge="1" parent="1" source="u7Th_CYeHWjo8ZA-D8sN-49" target="u7Th_CYeHWjo8ZA-D8sN-1">
          <mxGeometry relative="1" as="geometry">
            <mxPoint x="320" y="220" as="targetPoint" />
            <Array as="points">
              <mxPoint x="421" y="270" />
              <mxPoint x="240" y="270" />
              <mxPoint x="240" y="153" />
            </Array>
          </mxGeometry>
        </mxCell>
        <mxCell id="u7Th_CYeHWjo8ZA-D8sN-66" value="1" style="edgeLabel;html=1;align=center;verticalAlign=middle;resizable=0;points=[];rounded=0;strokeColor=default;strokeWidth=1;fontFamily=Helvetica;fontSize=12;fontColor=default;fillColor=default;gradientColor=none;" vertex="1" connectable="0" parent="u7Th_CYeHWjo8ZA-D8sN-54">
          <mxGeometry x="-0.9255" y="1" relative="1" as="geometry">
            <mxPoint as="offset" />
          </mxGeometry>
        </mxCell>
        <mxCell id="u7Th_CYeHWjo8ZA-D8sN-61" style="edgeStyle=orthogonalEdgeStyle;rounded=0;orthogonalLoop=1;jettySize=auto;html=1;exitX=1;exitY=0;exitDx=0;exitDy=0;entryX=0;entryY=0.5;entryDx=0;entryDy=0;fontFamily=Helvetica;fontSize=12;fontColor=default;endArrow=none;endFill=0;" edge="1" parent="1" source="u7Th_CYeHWjo8ZA-D8sN-49" target="u7Th_CYeHWjo8ZA-D8sN-51">
          <mxGeometry relative="1" as="geometry" />
        </mxCell>
        <mxCell id="u7Th_CYeHWjo8ZA-D8sN-62" style="edgeStyle=orthogonalEdgeStyle;rounded=0;orthogonalLoop=1;jettySize=auto;html=1;exitX=1;exitY=1;exitDx=0;exitDy=0;entryX=0.75;entryY=0;entryDx=0;entryDy=0;fontFamily=Helvetica;fontSize=12;fontColor=default;endArrow=none;endFill=0;" edge="1" parent="1" source="u7Th_CYeHWjo8ZA-D8sN-49" target="u7Th_CYeHWjo8ZA-D8sN-3">
          <mxGeometry relative="1" as="geometry" />
        </mxCell>
        <mxCell id="u7Th_CYeHWjo8ZA-D8sN-67" value="N" style="edgeLabel;html=1;align=center;verticalAlign=middle;resizable=0;points=[];rounded=0;strokeColor=default;strokeWidth=1;fontFamily=Helvetica;fontSize=12;fontColor=default;fillColor=default;gradientColor=none;" vertex="1" connectable="0" parent="u7Th_CYeHWjo8ZA-D8sN-62">
          <mxGeometry x="-0.5932" y="1" relative="1" as="geometry">
            <mxPoint as="offset" />
          </mxGeometry>
        </mxCell>
        <mxCell id="u7Th_CYeHWjo8ZA-D8sN-49" value="arrives" style="rhombus;whiteSpace=wrap;html=1;rounded=0;strokeColor=default;strokeWidth=1;align=center;verticalAlign=middle;fontFamily=Helvetica;fontSize=12;fontColor=default;fillColor=default;gradientColor=none;" vertex="1" parent="1">
          <mxGeometry x="388" y="380" width="66" height="60" as="geometry" />
        </mxCell>
        <mxCell id="u7Th_CYeHWjo8ZA-D8sN-60" style="edgeStyle=orthogonalEdgeStyle;rounded=0;orthogonalLoop=1;jettySize=auto;html=1;exitX=0.5;exitY=0;exitDx=0;exitDy=0;entryX=0;entryY=0.5;entryDx=0;entryDy=0;fontFamily=Helvetica;fontSize=12;fontColor=default;endArrow=none;endFill=0;" edge="1" parent="1" source="u7Th_CYeHWjo8ZA-D8sN-50" target="u7Th_CYeHWjo8ZA-D8sN-48">
          <mxGeometry relative="1" as="geometry" />
        </mxCell>
        <mxCell id="u7Th_CYeHWjo8ZA-D8sN-50" value="dep_time" style="ellipse;whiteSpace=wrap;html=1;rounded=0;strokeColor=default;strokeWidth=1;align=center;verticalAlign=middle;fontFamily=Helvetica;fontSize=12;fontColor=default;fillColor=default;gradientColor=none;" vertex="1" parent="1">
          <mxGeometry x="250" y="380" width="60" height="30" as="geometry" />
        </mxCell>
        <mxCell id="u7Th_CYeHWjo8ZA-D8sN-51" value="arr_time" style="ellipse;whiteSpace=wrap;html=1;rounded=0;strokeColor=default;strokeWidth=1;align=center;verticalAlign=middle;fontFamily=Helvetica;fontSize=12;fontColor=default;fillColor=default;gradientColor=none;" vertex="1" parent="1">
          <mxGeometry x="440" y="360" width="60" height="30" as="geometry" />
        </mxCell>
        <mxCell id="u7Th_CYeHWjo8ZA-D8sN-122" style="edgeStyle=orthogonalEdgeStyle;rounded=0;orthogonalLoop=1;jettySize=auto;html=1;exitX=0.75;exitY=0;exitDx=0;exitDy=0;entryX=0.008;entryY=0.35;entryDx=0;entryDy=0;entryPerimeter=0;fontFamily=Helvetica;fontSize=12;fontColor=default;endArrow=none;endFill=0;" edge="1" parent="1" source="u7Th_CYeHWjo8ZA-D8sN-8" target="u7Th_CYeHWjo8ZA-D8sN-28">
          <mxGeometry relative="1" as="geometry" />
        </mxCell>
      </root>
    </mxGraphModel>
  </diagram>
</mxfile>
